<svg version="1.1" xmlns="http://www.w3.org/2000/svg" viewBox="0 0 10020 842.50537109375" width="10020" height="842.50537109375">
  <!-- svg-source:excalidraw -->
  
  <defs>
    <style>
      @font-face {
        font-family: "Virgil";
        src: url("https://excalidraw.com/Virgil.woff2");
      }
      @font-face {
        font-family: "Cascadia";
        src: url("https://excalidraw.com/Cascadia.woff2");
      }
    </style>
  </defs>
  <rect x="0" y="0" width="10020" height="842.50537109375" fill="#fff0"></rect><g stroke-linecap="round" transform="translate(10 10) rotate(0 5000 0.5)"><path d="M-0.52 -0.26 C3022.65 -30.2, 6044.59 -29.2, 9999.32 0.22 M0.38 -0.31 C3948.03 -0.44, 7895.41 0.2, 9999.95 0.08 M10000.08 -0.06 C10000.09 0.27, 10000.05 0.48, 10000.09 0.92 M9999.97 0.01 C9999.95 0.33, 9999.98 0.72, 10000 0.99 M10000.22 1.51 C7095.77 35.76, 4193.15 34.95, -0.25 0.75 M10000.01 1.13 C7827.97 2.74, 5656.23 3.35, -0.33 0.84 M-0.04 1.01 C0 0.63, -0.06 0.15, 0.05 -0.03 M-0.04 0.95 C-0.04 0.73, -0.03 0.59, -0.05 -0.02" stroke="transparent" stroke-width="1" fill="none"></path></g><g transform="translate(558.25 587.78125) rotate(0 1 14.5)" stroke="none"><path fill="#000" d="M 2.01,0 Q 2.01,0 1.91,2.87 1.82,5.75 1.75,8.40 1.68,11.06 1.92,13.84 2.15,16.62 2.24,19.02 2.32,21.42 2.72,22.87 3.11,24.31 3.41,26.16 3.72,28.00 3.70,28.30 3.69,28.59 3.58,28.87 3.47,29.14 3.28,29.37 3.09,29.59 2.84,29.75 2.59,29.90 2.30,29.97 2.02,30.03 1.72,30.00 1.43,29.97 1.16,29.85 0.89,29.73 0.68,29.53 0.46,29.33 0.32,29.07 0.18,28.81 0.13,28.52 0.08,28.22 0.13,27.93 0.17,27.64 0.31,27.38 0.45,27.12 0.66,26.91 0.87,26.71 1.14,26.58 1.40,26.46 1.70,26.42 1.99,26.39 2.28,26.45 2.57,26.51 2.82,26.66 3.08,26.81 3.27,27.04 3.46,27.26 3.57,27.53 3.68,27.81 3.70,28.10 3.72,28.40 3.64,28.68 3.56,28.97 3.40,29.21 3.24,29.46 3.00,29.64 2.77,29.82 2.49,29.91 2.21,30.01 1.92,30.01 1.62,30.01 1.34,29.92 1.06,29.83 0.83,29.65 0.59,29.47 0.42,29.23 0.26,28.99 0.17,28.70 0.09,28.42 0.09,28.42 0.09,28.42 -0.01,26.71 -0.12,25.01 -0.40,23.29 -0.68,21.58 -0.84,19.26 -1.00,16.93 -1.34,14.00 -1.68,11.06 -1.75,8.40 -1.82,5.75 -1.91,2.87 -2.01,0 -1.98,-0.24 -1.95,-0.48 -1.86,-0.70 -1.78,-0.93 -1.64,-1.13 -1.50,-1.33 -1.32,-1.49 -1.14,-1.65 -0.92,-1.76 -0.71,-1.88 -0.47,-1.93 -0.24,-1.99 0.00,-1.99 0.24,-1.99 0.47,-1.93 0.71,-1.88 0.92,-1.76 1.14,-1.65 1.32,-1.49 1.50,-1.33 1.64,-1.13 1.78,-0.93 1.86,-0.70 1.95,-0.48 1.98,-0.24 2.01,0.00 2.01,0.00 L 2.01,0 Z"></path></g><g transform="translate(569.25 586.78125) rotate(0 1.5 10.5)" stroke="none"><path fill="#000" d="M 1.95,-0.48 Q 1.95,-0.48 2.43,1.83 2.92,4.15 3.11,6.41 3.31,8.66 3.65,10.66 3.99,12.66 4.15,14.77 4.32,16.88 4.50,18.52 4.68,20.17 4.65,20.45 4.63,20.73 4.51,20.98 4.39,21.24 4.20,21.44 4.01,21.65 3.76,21.78 3.52,21.91 3.24,21.96 2.96,22.01 2.69,21.97 2.41,21.92 2.16,21.79 1.91,21.66 1.72,21.46 1.52,21.26 1.40,21.00 1.28,20.75 1.25,20.47 1.22,20.19 1.28,19.92 1.33,19.64 1.48,19.40 1.62,19.16 1.83,18.98 2.05,18.79 2.31,18.69 2.57,18.58 2.85,18.57 3.13,18.55 3.40,18.62 3.67,18.69 3.90,18.85 4.13,19.01 4.31,19.23 4.48,19.45 4.57,19.72 4.66,19.98 4.66,20.26 4.66,20.54 4.58,20.81 4.49,21.08 4.32,21.30 4.15,21.53 3.92,21.68 3.69,21.84 3.42,21.92 3.15,22.00 2.87,21.98 2.59,21.97 2.33,21.87 2.07,21.77 1.85,21.59 1.64,21.41 1.49,21.17 1.34,20.93 1.28,20.65 1.22,20.38 1.22,20.38 1.22,20.38 1.20,18.76 1.18,17.13 1.01,15.20 0.84,13.26 0.40,11.15 -0.03,9.04 -0.32,7.04 -0.62,5.04 -1.28,2.76 -1.95,0.48 -1.98,0.24 -2.01,0.00 -1.98,-0.23 -1.95,-0.47 -1.86,-0.70 -1.78,-0.92 -1.64,-1.12 -1.50,-1.32 -1.32,-1.48 -1.14,-1.65 -0.93,-1.76 -0.71,-1.87 -0.48,-1.93 -0.24,-1.99 -0.00,-1.99 0.23,-1.99 0.47,-1.93 0.70,-1.88 0.92,-1.77 1.13,-1.65 1.31,-1.49 1.50,-1.33 1.63,-1.13 1.77,-0.94 1.86,-0.71 1.95,-0.48 1.95,-0.48 L 1.95,-0.48 Z"></path></g><g transform="translate(557.25 604.78125) rotate(0 10.5 -2)" stroke="none"><path fill="#000" d="M -0.27,-1.94 Q -0.27,-1.94 1.74,-2.17 3.76,-2.39 6.34,-2.73 8.91,-3.07 11.44,-3.47 13.96,-3.88 16.65,-4.66 19.34,-5.44 19.63,-5.47 19.92,-5.49 20.21,-5.42 20.49,-5.35 20.74,-5.19 20.98,-5.04 21.16,-4.81 21.35,-4.58 21.45,-4.31 21.55,-4.03 21.56,-3.74 21.57,-3.45 21.48,-3.17 21.39,-2.89 21.22,-2.65 21.05,-2.42 20.82,-2.24 20.58,-2.07 20.30,-1.99 20.02,-1.90 19.73,-1.91 19.44,-1.92 19.16,-2.02 18.89,-2.12 18.66,-2.30 18.43,-2.48 18.28,-2.73 18.12,-2.98 18.05,-3.26 17.98,-3.54 18.00,-3.83 18.02,-4.13 18.14,-4.39 18.25,-4.66 18.45,-4.88 18.64,-5.10 18.90,-5.24 19.15,-5.39 19.44,-5.44 19.73,-5.50 20.02,-5.46 20.31,-5.42 20.57,-5.29 20.83,-5.16 21.04,-4.95 21.24,-4.75 21.37,-4.48 21.50,-4.22 21.54,-3.93 21.58,-3.64 21.53,-3.36 21.47,-3.07 21.33,-2.81 21.18,-2.56 20.97,-2.37 20.75,-2.17 20.48,-2.05 20.21,-1.94 20.21,-1.94 20.21,-1.94 17.37,-1.34 14.53,-0.75 11.99,-0.23 9.45,0.28 6.86,0.76 4.28,1.24 2.28,1.59 0.27,1.94 0.04,1.95 -0.19,1.95 -0.42,1.90 -0.65,1.85 -0.86,1.74 -1.08,1.64 -1.26,1.48 -1.44,1.33 -1.58,1.14 -1.72,0.94 -1.80,0.72 -1.89,0.51 -1.93,0.27 -1.96,0.04 -1.94,-0.19 -1.91,-0.43 -1.83,-0.65 -1.75,-0.87 -1.62,-1.07 -1.49,-1.27 -1.32,-1.43 -1.14,-1.59 -0.94,-1.70 -0.73,-1.82 -0.50,-1.88 -0.27,-1.94 -0.27,-1.94 L -0.27,-1.94 Z"></path></g><g transform="translate(586.25 604.78125) rotate(0 30.5 5.5)" stroke="none"><path fill="#000" d="M -1.36,-1.56 Q -1.36,-1.56 0.99,-3.49 3.36,-5.43 4.20,-6.50 5.05,-7.58 5.25,-6.53 5.46,-5.48 4.43,-4.63 3.40,-3.79 2.41,-2.27 1.43,-0.75 0.99,0.89 0.56,2.55 0.67,3.93 0.79,5.31 1.50,6.45 2.22,7.59 3.65,8.28 5.08,8.97 6.92,9.07 8.76,9.16 10.54,8.45 12.33,7.74 13.94,6.65 15.54,5.56 16.72,4.06 17.90,2.57 18.66,0.61 19.43,-1.34 19.75,-3.26 20.08,-5.19 20.16,-6.86 20.24,-8.54 20.76,-7.03 21.29,-5.52 21.12,-3.37 20.96,-1.21 21.14,1.03 21.32,3.29 21.91,5.29 22.50,7.28 23.54,8.53 24.58,9.78 25.67,9.99 26.76,10.21 27.32,9.26 27.88,8.32 28.85,6.64 29.83,4.97 30.85,2.29 31.88,-0.38 32.33,-3.14 32.77,-5.90 32.99,-8.80 33.20,-11.70 33.31,-14.09 33.41,-16.48 33.34,-17.22 33.26,-17.96 33.29,-18.16 33.32,-18.36 33.40,-18.55 33.48,-18.74 33.60,-18.90 33.72,-19.06 33.88,-19.19 34.03,-19.32 34.22,-19.41 34.40,-19.50 34.60,-19.54 34.80,-19.58 35.00,-19.58 35.20,-19.57 35.40,-19.51 35.59,-19.46 35.77,-19.36 35.95,-19.26 36.09,-19.12 36.24,-18.98 36.35,-18.81 36.46,-18.64 36.53,-18.45 36.59,-18.25 36.61,-18.05 36.63,-17.85 36.60,-16.18 36.57,-14.52 36.54,-11.49 36.51,-8.47 36.48,-5.17 36.46,-1.87 36.72,1.47 36.99,4.83 37.38,7.68 37.77,10.53 38.48,12.79 39.19,15.06 40.08,16.49 40.97,17.92 41.74,18.84 42.52,19.76 44.08,17.80 45.64,15.83 47.04,13.93 48.44,12.02 49.30,10.17 50.16,8.32 50.45,7.13 50.74,5.95 50.85,5.75 50.97,5.56 51.12,5.40 51.28,5.24 51.47,5.12 51.66,5.00 51.87,4.94 52.09,4.87 52.31,4.85 52.53,4.83 52.75,4.87 52.97,4.91 53.18,5.00 53.38,5.09 53.56,5.23 53.74,5.36 53.88,5.54 54.02,5.71 54.11,5.91 54.21,6.12 54.25,6.34 54.29,6.56 54.28,6.78 54.27,7.00 54.21,7.22 54.14,7.43 53.08,13.31 52.01,19.19 51.55,22.04 51.10,24.89 51.54,26.09 51.99,27.28 53.21,27.91 54.43,28.54 55.86,27.68 57.29,26.83 58.16,25.95 59.03,25.06 59.57,23.78 60.11,22.50 60.44,20.71 60.77,18.92 60.14,16.94 59.51,14.97 58.22,13.33 56.93,11.70 55.54,10.43 54.16,9.16 52.08,8.46 50.00,7.75 49.76,7.63 49.52,7.51 49.33,7.32 49.13,7.13 49.01,6.88 48.89,6.64 48.86,6.37 48.82,6.10 48.87,5.84 48.92,5.57 49.06,5.33 49.19,5.10 49.39,4.92 49.59,4.74 49.84,4.63 50.09,4.52 50.36,4.50 50.63,4.48 50.90,4.54 51.16,4.61 51.39,4.76 51.62,4.90 51.79,5.11 51.96,5.33 52.05,5.58 52.15,5.83 52.15,6.11 52.16,6.38 52.08,6.64 52.00,6.90 51.84,7.12 51.68,7.34 51.46,7.50 51.24,7.65 50.98,7.73 50.72,7.81 50.45,7.80 50.18,7.80 49.92,7.70 49.67,7.61 49.46,7.44 49.25,7.27 49.10,7.04 48.96,6.81 48.89,6.55 48.83,6.28 48.85,6.01 48.87,5.74 48.98,5.49 49.08,5.24 49.27,5.04 49.45,4.84 49.68,4.71 49.92,4.57 50.19,4.52 50.45,4.47 50.72,4.51 50.99,4.55 50.99,4.55 50.99,4.55 53.60,5.70 56.22,6.86 57.79,8.31 59.37,9.77 61.00,11.84 62.62,13.92 63.45,16.61 64.27,19.30 63.95,21.72 63.63,24.14 62.65,26.00 61.68,27.86 60.32,28.96 58.97,30.06 56.52,31.17 54.07,32.28 52.33,31.58 50.58,30.87 49.71,29.55 48.83,28.23 48.48,26.39 48.14,24.55 48.52,21.62 48.91,18.69 49.82,12.32 50.74,5.95 50.85,5.75 50.97,5.56 51.12,5.40 51.28,5.24 51.47,5.12 51.66,5.00 51.87,4.94 52.08,4.87 52.31,4.85 52.53,4.83 52.75,4.87 52.97,4.91 53.18,5.00 53.38,5.09 53.56,5.23 53.74,5.36 53.88,5.54 54.02,5.71 54.11,5.91 54.21,6.12 54.25,6.34 54.29,6.56 54.28,6.78 54.27,7.00 54.21,7.22 54.14,7.43 53.68,8.54 53.22,9.65 52.32,11.84 51.41,14.03 50.01,16.23 48.61,18.42 47.22,20.05 45.83,21.67 44.38,22.35 42.93,23.02 41.31,22.32 39.69,21.63 39.04,20.50 38.38,19.38 37.48,17.64 36.58,15.90 35.80,13.41 35.01,10.92 34.58,8.00 34.15,5.07 33.84,1.60 33.53,-1.87 33.50,-5.16 33.47,-8.46 33.42,-11.48 33.38,-14.49 33.32,-16.23 33.26,-17.96 33.29,-18.16 33.32,-18.36 33.40,-18.55 33.48,-18.74 33.60,-18.90 33.72,-19.06 33.88,-19.19 34.03,-19.32 34.22,-19.41 34.40,-19.50 34.60,-19.54 34.80,-19.58 35.00,-19.58 35.20,-19.57 35.40,-19.51 35.59,-19.46 35.77,-19.36 35.95,-19.26 36.09,-19.12 36.24,-18.98 36.35,-18.81 36.46,-18.64 36.53,-18.45 36.59,-18.25 36.61,-18.05 36.63,-17.85 36.49,-17.12 36.35,-16.38 36.30,-13.95 36.25,-11.51 36.10,-8.47 35.94,-5.43 35.53,-2.33 35.11,0.75 34.11,3.74 33.11,6.72 32.01,8.91 30.91,11.10 29.31,12.47 27.70,13.84 25.83,13.71 23.96,13.59 22.98,12.69 22.00,11.80 20.73,10.06 19.46,8.32 18.68,6.00 17.90,3.67 17.56,1.17 17.22,-1.32 17.19,-3.59 17.15,-5.86 17.34,-7.98 17.52,-10.09 18.72,-11.51 19.92,-12.92 21.46,-11.93 22.99,-10.95 23.14,-9.63 23.29,-8.31 23.07,-6.51 22.84,-4.71 22.45,-2.51 22.06,-0.31 21.12,2.01 20.19,4.34 18.73,6.17 17.27,8.00 15.38,9.33 13.48,10.65 11.09,11.56 8.70,12.47 6.12,12.33 3.54,12.18 1.33,10.95 -0.87,9.72 -1.95,7.70 -3.03,5.68 -3.09,3.68 -3.14,1.68 -2.62,-0.56 -2.09,-2.80 -0.82,-5.05 0.44,-7.30 2.01,-8.55 3.58,-9.80 5.18,-10.12 6.78,-10.43 7.81,-9.71 8.84,-8.98 8.45,-7.01 8.05,-5.03 6.94,-3.82 5.83,-2.61 3.60,-0.52 1.36,1.56 1.16,1.70 0.95,1.84 0.71,1.93 0.48,2.02 0.23,2.04 -0.01,2.07 -0.26,2.04 -0.50,2.01 -0.74,1.92 -0.97,1.83 -1.18,1.69 -1.38,1.54 -1.55,1.35 -1.71,1.16 -1.83,0.94 -1.94,0.72 -2.00,0.48 -2.06,0.23 -2.06,-0.01 -2.06,-0.26 -1.99,-0.50 -1.93,-0.74 -1.82,-0.97 -1.70,-1.19 -1.53,-1.37 -1.36,-1.56 -1.36,-1.56 L -1.36,-1.56 Z"></path></g><g transform="translate(1801.109130859375 832.50537109375) rotate(0 -141.0545654296875 -57.752685546875)" stroke="none"><path fill="#000" d="M -0.69,1.69 Q -0.69,1.69 -20.94,-6.67 -41.19,-15.04 -70.06,-26.91 -98.94,-38.79 -131.48,-52.16 -164.02,-65.52 -198.13,-79.51 -232.23,-93.50 -232.43,-93.63 -232.63,-93.75 -232.78,-93.93 -232.93,-94.11 -233.02,-94.33 -233.10,-94.55 -233.11,-94.79 -233.12,-95.02 -233.06,-95.25 -232.99,-95.48 -232.86,-95.67 -232.72,-95.87 -232.54,-96.01 -232.35,-96.15 -232.12,-96.22 -231.90,-96.29 -231.66,-96.29 -231.43,-96.29 -231.20,-96.21 -230.98,-96.13 -230.79,-95.99 -230.61,-95.85 -230.48,-95.65 -230.35,-95.45 -230.29,-95.22 -230.23,-95.00 -230.24,-94.76 -230.26,-94.53 -230.34,-94.31 -230.43,-94.09 -230.59,-93.91 -230.74,-93.73 -230.95,-93.61 -231.15,-93.49 -231.38,-93.45 -231.61,-93.40 -231.85,-93.42 -232.08,-93.45 -232.29,-93.55 -232.51,-93.65 -232.68,-93.82 -232.85,-93.98 -232.95,-94.19 -233.06,-94.40 -233.10,-94.63 -233.13,-94.87 -233.09,-95.10 -233.05,-95.33 -232.94,-95.54 -232.83,-95.75 -232.66,-95.91 -232.48,-96.07 -232.27,-96.16 -232.05,-96.26 -231.82,-96.29 -231.58,-96.31 -231.35,-96.26 -231.12,-96.20 -231.12,-96.20 -231.12,-96.20 -197.00,-82.26 -162.88,-68.32 -130.31,-55.02 -97.74,-41.73 -68.82,-29.95 -39.91,-18.16 -19.61,-9.92 0.69,-1.69 0.88,-1.58 1.07,-1.47 1.23,-1.32 1.39,-1.17 1.51,-0.99 1.64,-0.80 1.71,-0.59 1.78,-0.39 1.80,-0.17 1.82,0.04 1.79,0.26 1.76,0.48 1.67,0.68 1.59,0.89 1.46,1.06 1.33,1.24 1.16,1.38 0.99,1.53 0.80,1.62 0.60,1.72 0.38,1.77 0.17,1.81 -0.04,1.81 -0.26,1.80 -0.48,1.74 -0.69,1.69 -0.69,1.69 L -0.69,1.69 Z"></path></g><g transform="translate(716 660.78125) rotate(0 17.5 22)" stroke="none"><path fill="#000" d="M 1.73,-0.40 Q 1.73,-0.40 2.53,3.35 3.33,7.10 3.71,9.00 4.08,10.90 4.25,12.94 4.41,14.98 4.43,17.87 4.46,20.76 4.45,23.41 4.45,26.07 4.72,28.55 4.99,31.04 5.38,33.54 5.77,36.03 6.24,37.91 6.71,39.80 7.03,40.88 7.34,41.96 7.36,42.16 7.38,42.36 7.36,42.57 7.33,42.77 7.26,42.96 7.19,43.14 7.07,43.31 6.95,43.48 6.80,43.61 6.65,43.74 6.47,43.84 6.29,43.93 6.09,43.98 5.90,44.02 5.69,44.02 5.49,44.02 5.29,43.97 5.10,43.92 4.92,43.83 4.74,43.73 4.59,43.60 4.44,43.46 4.32,43.29 4.21,43.12 4.14,42.93 4.07,42.75 3.84,41.29 3.61,39.84 5.58,32.13 7.56,24.42 8.70,21.31 9.85,18.21 9.92,18.03 9.99,17.85 10.10,17.70 10.21,17.54 10.35,17.42 10.49,17.30 10.66,17.21 10.83,17.12 11.02,17.08 11.20,17.04 11.39,17.04 11.58,17.04 11.77,17.09 11.95,17.14 12.12,17.23 12.29,17.32 12.43,17.45 12.57,17.57 12.67,17.73 12.78,17.89 12.84,18.07 12.91,18.25 12.93,18.44 12.95,18.62 12.92,18.81 12.90,19.00 19.29,21.67 25.69,24.33 28.64,26.23 31.59,28.12 33.02,30.58 34.45,33.04 35.07,34.98 35.69,36.91 36.10,38.45 36.51,39.99 36.52,40.26 36.53,40.53 36.46,40.79 36.38,41.06 36.23,41.28 36.07,41.51 35.85,41.67 35.63,41.83 35.37,41.92 35.11,42.00 34.84,42.00 34.57,42.00 34.31,41.91 34.05,41.82 33.84,41.65 33.62,41.48 33.47,41.26 33.32,41.03 33.25,40.76 33.18,40.50 33.19,40.23 33.21,39.96 33.32,39.70 33.42,39.45 33.60,39.24 33.78,39.04 34.01,38.90 34.25,38.76 34.51,38.71 34.78,38.65 35.05,38.68 35.32,38.71 35.57,38.83 35.82,38.95 36.01,39.14 36.21,39.33 36.33,39.57 36.46,39.81 36.50,40.08 36.54,40.35 36.50,40.62 36.45,40.89 36.32,41.13 36.19,41.37 35.99,41.55 35.79,41.74 35.54,41.85 35.29,41.96 35.02,41.99 34.75,42.02 34.48,41.96 34.22,41.90 33.98,41.75 33.75,41.61 33.58,41.40 33.40,41.19 33.30,40.94 33.20,40.68 33.21,40.68 33.21,40.68 32.98,39.22 32.76,37.76 32.33,36.10 31.91,34.44 30.89,32.49 29.87,30.54 27.04,28.83 24.22,27.13 17.03,22.67 9.85,18.21 9.92,18.03 9.99,17.85 10.10,17.70 10.21,17.54 10.35,17.42 10.49,17.30 10.66,17.21 10.83,17.12 11.02,17.08 11.20,17.04 11.39,17.04 11.58,17.04 11.77,17.09 11.95,17.14 12.12,17.23 12.28,17.32 12.43,17.45 12.57,17.57 12.67,17.73 12.78,17.89 12.84,18.07 12.91,18.25 12.93,18.44 12.95,18.62 12.92,18.81 12.90,19.00 11.85,22.13 10.80,25.26 8.96,32.23 7.12,39.19 7.23,40.58 7.34,41.96 7.36,42.16 7.38,42.36 7.36,42.57 7.33,42.77 7.26,42.96 7.19,43.14 7.07,43.31 6.95,43.48 6.80,43.61 6.65,43.74 6.47,43.84 6.29,43.93 6.09,43.98 5.90,44.02 5.69,44.02 5.49,44.02 5.29,43.97 5.10,43.92 4.92,43.83 4.74,43.73 4.59,43.60 4.44,43.46 4.32,43.29 4.21,43.13 4.14,42.94 4.07,42.75 3.99,41.61 3.90,40.47 3.45,38.48 2.99,36.49 2.56,33.93 2.12,31.38 1.79,28.74 1.46,26.10 1.40,23.47 1.34,20.83 1.23,18.04 1.12,15.25 0.97,13.39 0.82,11.54 0.47,9.69 0.11,7.84 -0.80,4.12 -1.73,0.40 -1.75,0.18 -1.77,-0.02 -1.74,-0.23 -1.72,-0.45 -1.64,-0.65 -1.56,-0.85 -1.43,-1.02 -1.31,-1.19 -1.15,-1.33 -0.98,-1.47 -0.79,-1.57 -0.60,-1.67 -0.39,-1.72 -0.18,-1.76 0.02,-1.76 0.24,-1.76 0.44,-1.70 0.65,-1.65 0.84,-1.55 1.03,-1.44 1.19,-1.30 1.34,-1.15 1.46,-0.98 1.58,-0.80 1.66,-0.60 1.73,-0.39 1.73,-0.39 L 1.73,-0.40 Z"></path></g><g transform="translate(757 693.78125) rotate(0 39.5 -12)" stroke="none"><path fill="#000" d="M 0.27,-1.90 Q 0.27,-1.90 1.81,-1.36 3.36,-0.83 5.00,-3.32 6.64,-5.82 6.83,-7.43 7.01,-9.03 6.30,-10.03 5.59,-11.02 4.35,-11.95 3.10,-12.87 1.88,-13.18 0.65,-13.50 -0.57,-12.26 -1.80,-11.02 -2.50,-9.23 -3.20,-7.44 -3.89,-5.65 -4.57,-3.87 4.32,-0.09 13.22,3.68 17.20,5.09 21.17,6.50 23.37,5.71 25.57,4.93 27.28,2.76 28.99,0.60 30.33,-1.69 31.68,-3.98 31.73,-12.54 31.77,-21.09 31.87,-21.22 31.97,-21.36 32.10,-21.46 32.23,-21.56 32.38,-21.63 32.53,-21.70 32.69,-21.74 32.85,-21.77 33.01,-21.76 33.18,-21.76 33.33,-21.71 33.49,-21.66 33.63,-21.58 33.78,-21.50 33.90,-21.38 34.01,-21.27 34.10,-21.13 34.19,-20.99 34.24,-20.84 34.29,-20.68 34.31,-20.52 34.32,-20.35 34.29,-20.19 34.27,-20.03 34.20,-19.88 34.14,-19.73 33.95,-17.57 33.76,-15.42 33.92,-13.10 34.08,-10.78 36.38,-6.52 38.67,-2.27 39.91,-0.44 41.15,1.39 42.61,-0.29 44.06,-1.98 44.74,-4.87 45.42,-7.77 46.03,-11.33 46.64,-14.89 46.62,-19.17 46.60,-23.46 46.32,-27.01 46.03,-30.55 45.64,-32.89 45.24,-35.22 44.95,-36.50 44.66,-37.79 44.65,-37.98 44.64,-38.18 44.68,-38.37 44.72,-38.56 44.80,-38.74 44.88,-38.92 45.00,-39.07 45.12,-39.22 45.28,-39.34 45.43,-39.46 45.61,-39.54 45.79,-39.62 45.98,-39.65 46.17,-39.68 46.37,-39.67 46.56,-39.66 46.75,-39.60 46.93,-39.54 47.10,-39.43 47.27,-39.33 47.40,-39.19 47.54,-39.05 47.64,-38.89 47.74,-38.72 47.79,-38.53 47.85,-38.34 47.78,-36.32 47.71,-34.29 49.94,-23.44 52.16,-12.60 53.37,-7.66 54.59,-2.71 55.11,-0.28 55.62,2.13 56.39,4.53 57.15,6.92 58.03,9.07 58.92,11.21 59.71,12.10 60.50,12.99 60.55,13.18 60.61,13.37 60.61,13.56 60.62,13.76 60.58,13.95 60.54,14.14 60.45,14.32 60.37,14.50 60.24,14.65 60.12,14.80 59.96,14.92 59.80,15.03 59.62,15.11 59.44,15.19 59.24,15.22 59.05,15.25 58.85,15.23 58.66,15.21 58.47,15.15 58.28,15.08 58.12,14.98 57.95,14.87 57.82,14.73 57.68,14.59 57.59,14.42 57.49,14.24 61.39,7.36 65.30,0.48 66.88,-2.41 68.46,-5.30 69.09,-7.30 69.72,-9.29 69.89,-10.51 70.06,-11.73 70.14,-11.91 70.22,-12.08 70.34,-12.23 70.46,-12.38 70.61,-12.50 70.76,-12.61 70.93,-12.69 71.11,-12.77 71.30,-12.80 71.49,-12.83 71.68,-12.82 71.87,-12.81 72.05,-12.75 72.23,-12.69 72.40,-12.59 72.56,-12.49 72.70,-12.35 72.83,-12.22 72.93,-12.05 73.03,-11.89 73.08,-11.70 73.14,-11.52 73.15,-11.33 73.16,-11.14 73.12,-10.95 73.08,-10.76 73.28,-8.38 73.47,-5.99 73.46,-2.83 73.45,0.33 73.42,3.06 73.39,5.78 74.95,8.33 76.51,10.87 77.75,11.22 78.99,11.58 80.33,10.17 81.67,8.76 80.14,2.21 78.61,-4.33 77.73,-7.60 76.86,-10.87 76.84,-11.05 76.83,-11.23 76.86,-11.41 76.88,-11.59 76.95,-11.76 77.03,-11.93 77.13,-12.08 77.24,-12.22 77.38,-12.34 77.53,-12.46 77.69,-12.54 77.86,-12.62 78.03,-12.65 78.21,-12.69 78.40,-12.68 78.58,-12.68 78.75,-12.63 78.93,-12.58 79.09,-12.49 79.25,-12.40 79.38,-12.27 79.51,-12.15 79.61,-11.99 79.71,-11.84 79.77,-11.66 79.83,-11.49 76.67,-7.60 73.51,-3.72 72.28,-2.13 71.04,-0.54 72.71,3.79 74.37,8.13 75.43,9.81 76.49,11.49 77.04,11.34 77.58,11.19 77.78,11.02 77.97,10.85 78.21,10.74 78.45,10.64 78.71,10.62 78.96,10.60 79.22,10.67 79.47,10.73 79.69,10.87 79.90,11.01 80.07,11.21 80.23,11.42 80.32,11.66 80.40,11.90 80.41,12.16 80.42,12.42 80.34,12.67 80.26,12.92 80.11,13.13 79.96,13.34 79.75,13.49 79.54,13.64 79.29,13.71 79.04,13.79 78.78,13.78 78.52,13.77 78.28,13.68 78.04,13.59 77.83,13.43 77.63,13.27 77.49,13.05 77.35,12.83 77.29,12.58 77.23,12.32 77.25,12.07 77.28,11.81 77.38,11.57 77.48,11.33 77.66,11.14 77.83,10.95 78.06,10.82 78.28,10.69 78.54,10.65 78.79,10.60 79.05,10.63 79.31,10.67 79.54,10.79 79.77,10.90 79.95,11.09 80.13,11.27 80.25,11.50 80.36,11.73 80.40,11.99 80.43,12.25 80.38,12.50 80.33,12.76 80.20,12.98 80.07,13.21 80.08,13.21 80.08,13.21 77.06,13.24 74.04,13.27 72.77,11.42 71.50,9.56 69.38,4.98 67.27,0.39 67.98,-0.97 68.68,-2.34 69.98,-4.06 71.28,-5.78 74.07,-8.32 76.86,-10.87 76.84,-11.05 76.83,-11.23 76.86,-11.41 76.88,-11.59 76.95,-11.76 77.03,-11.93 77.13,-12.08 77.24,-12.22 77.38,-12.34 77.53,-12.46 77.69,-12.54 77.85,-12.62 78.03,-12.65 78.21,-12.69 78.40,-12.68 78.58,-12.68 78.75,-12.63 78.93,-12.58 79.09,-12.49 79.25,-12.40 79.38,-12.27 79.51,-12.15 79.61,-11.99 79.71,-11.84 79.77,-11.66 79.83,-11.49 80.78,-8.24 81.73,-4.99 83.14,2.42 84.56,9.85 82.89,11.94 81.23,14.02 79.75,14.24 78.28,14.46 76.32,13.50 74.37,12.54 72.47,9.27 70.57,6.00 70.52,3.17 70.47,0.35 70.42,-2.78 70.37,-5.91 70.21,-8.82 70.06,-11.73 70.14,-11.90 70.22,-12.08 70.34,-12.23 70.46,-12.38 70.61,-12.50 70.76,-12.61 70.93,-12.69 71.11,-12.77 71.30,-12.80 71.49,-12.83 71.68,-12.82 71.87,-12.81 72.05,-12.75 72.23,-12.69 72.40,-12.59 72.56,-12.49 72.70,-12.35 72.83,-12.22 72.93,-12.05 73.03,-11.89 73.08,-11.70 73.14,-11.52 73.15,-11.33 73.16,-11.14 73.12,-10.95 73.08,-10.76 72.68,-9.62 72.27,-8.47 71.56,-6.25 70.84,-4.02 69.24,-1.06 67.64,1.89 64.07,7.44 60.50,12.99 60.55,13.18 60.61,13.37 60.61,13.56 60.62,13.76 60.58,13.95 60.54,14.14 60.45,14.32 60.37,14.50 60.24,14.65 60.12,14.80 59.96,14.92 59.80,15.03 59.62,15.11 59.44,15.19 59.24,15.22 59.05,15.25 58.85,15.23 58.66,15.21 58.47,15.15 58.28,15.08 58.12,14.98 57.95,14.87 57.82,14.73 57.68,14.59 57.59,14.42 57.49,14.24 56.93,13.27 56.37,12.29 55.42,10.05 54.46,7.80 53.63,5.28 52.79,2.76 52.23,0.39 51.68,-1.97 50.37,-6.97 49.07,-11.96 46.72,-23.15 44.37,-34.34 44.52,-36.06 44.66,-37.79 44.65,-37.98 44.64,-38.18 44.68,-38.37 44.72,-38.56 44.80,-38.74 44.88,-38.92 45.00,-39.07 45.12,-39.22 45.28,-39.34 45.43,-39.46 45.61,-39.54 45.79,-39.62 45.98,-39.65 46.17,-39.68 46.37,-39.67 46.56,-39.66 46.75,-39.60 46.93,-39.54 47.10,-39.43 47.27,-39.33 47.40,-39.19 47.54,-39.05 47.64,-38.89 47.74,-38.72 47.79,-38.53 47.85,-38.34 47.91,-37.02 47.98,-35.70 48.42,-33.24 48.86,-30.79 49.18,-27.14 49.51,-23.49 49.56,-18.95 49.62,-14.41 49.06,-10.74 48.50,-7.07 47.78,-3.77 47.06,-0.46 45.78,1.75 44.50,3.98 42.99,4.30 41.47,4.62 40.24,3.78 39.01,2.95 37.66,0.96 36.30,-1.02 33.86,-5.76 31.41,-10.50 31.23,-13.11 31.05,-15.72 31.41,-18.41 31.77,-21.09 31.87,-21.22 31.97,-21.36 32.10,-21.46 32.23,-21.56 32.38,-21.63 32.53,-21.70 32.69,-21.74 32.85,-21.77 33.01,-21.76 33.18,-21.76 33.33,-21.71 33.49,-21.66 33.63,-21.58 33.78,-21.50 33.90,-21.39 34.01,-21.27 34.10,-21.13 34.19,-20.99 34.24,-20.84 34.29,-20.68 34.31,-20.52 34.32,-20.35 34.29,-20.19 34.27,-20.03 34.20,-19.88 34.14,-19.73 34.13,-11.25 34.13,-2.78 32.64,-0.19 31.16,2.40 28.91,4.97 26.67,7.55 23.62,8.44 20.58,9.34 16.27,7.94 11.97,6.55 2.74,2.36 -6.47,-1.81 -6.52,-5.23 -6.57,-8.64 -5.77,-10.98 -4.98,-13.32 -3.42,-15.07 -1.87,-16.82 -0.06,-16.91 1.73,-17.00 3.48,-16.31 5.22,-15.61 6.91,-14.16 8.60,-12.71 9.38,-10.83 10.16,-8.95 9.79,-6.49 9.42,-4.03 7.05,-1.02 4.68,1.98 2.20,1.94 -0.27,1.90 -0.49,1.84 -0.72,1.78 -0.92,1.67 -1.12,1.56 -1.29,1.40 -1.46,1.24 -1.59,1.05 -1.72,0.85 -1.80,0.64 -1.87,0.42 -1.90,0.19 -1.92,-0.04 -1.89,-0.27 -1.86,-0.50 -1.77,-0.71 -1.68,-0.93 -1.55,-1.11 -1.41,-1.30 -1.23,-1.45 -1.06,-1.60 -0.85,-1.71 -0.64,-1.81 -0.41,-1.86 -0.19,-1.91 0.04,-1.91 0.27,-1.90 0.27,-1.90 L 0.27,-1.90 Z"></path></g><g transform="translate(901 702.78125) rotate(0 7.5 20)" stroke="none"><path fill="#000" d="M 1.65,-0.70 Q 1.65,-0.70 4.17,5.35 6.70,11.41 7.77,14.31 8.84,17.21 9.56,19.31 10.29,21.41 11.17,24.04 12.04,26.67 13.27,30.38 14.50,34.08 15.10,35.63 15.70,37.17 15.74,37.42 15.78,37.67 15.74,37.92 15.70,38.17 15.58,38.40 15.46,38.62 15.28,38.80 15.09,38.97 14.86,39.08 14.63,39.18 14.38,39.21 14.13,39.24 13.88,39.18 13.63,39.13 13.42,39.00 13.20,38.87 13.03,38.67 12.87,38.48 12.78,38.25 12.68,38.01 12.67,37.76 12.65,37.50 12.72,37.26 12.79,37.01 12.93,36.80 13.08,36.59 13.28,36.44 13.48,36.29 13.72,36.21 13.96,36.13 14.21,36.13 14.47,36.13 14.71,36.21 14.95,36.29 15.15,36.44 15.35,36.60 15.50,36.81 15.64,37.02 15.71,37.26 15.77,37.50 15.76,37.76 15.75,38.01 15.65,38.25 15.56,38.48 15.39,38.68 15.23,38.87 15.01,39.00 14.79,39.13 14.55,39.19 14.30,39.24 14.05,39.21 13.79,39.18 13.56,39.08 13.33,38.97 13.15,38.80 12.96,38.62 12.85,38.40 12.73,38.17 12.73,38.17 12.73,38.17 12.27,36.58 11.82,34.98 10.56,31.30 9.30,27.61 8.38,25.03 7.47,22.44 6.69,20.39 5.90,18.34 4.77,15.53 3.64,12.73 0.99,6.71 -1.65,0.70 -1.71,0.50 -1.77,0.29 -1.78,0.07 -1.79,-0.14 -1.74,-0.35 -1.70,-0.56 -1.61,-0.76 -1.52,-0.95 -1.38,-1.12 -1.24,-1.29 -1.07,-1.42 -0.90,-1.55 -0.70,-1.64 -0.50,-1.72 -0.28,-1.76 -0.07,-1.79 0.13,-1.77 0.35,-1.76 0.56,-1.69 0.76,-1.62 0.95,-1.51 1.13,-1.39 1.28,-1.23 1.43,-1.08 1.54,-0.89 1.65,-0.70 1.65,-0.70 L 1.65,-0.70 Z"></path></g><g transform="translate(902 728.78125) rotate(0 11.5 -7)" stroke="none"><path fill="#000" d="M -1.18,-1.41 Q -1.18,-1.41 0.58,-2.80 2.36,-4.18 4.95,-5.68 7.54,-7.19 11.79,-9.52 16.03,-11.85 17.83,-12.84 19.62,-13.83 19.85,-13.91 20.08,-13.99 20.32,-14.00 20.56,-14.00 20.79,-13.93 21.03,-13.86 21.22,-13.72 21.42,-13.57 21.56,-13.38 21.70,-13.18 21.77,-12.95 21.84,-12.71 21.83,-12.47 21.83,-12.23 21.74,-12.00 21.66,-11.77 21.50,-11.58 21.35,-11.39 21.14,-11.27 20.94,-11.14 20.70,-11.08 20.47,-11.02 20.22,-11.04 19.98,-11.06 19.76,-11.16 19.54,-11.26 19.36,-11.42 19.18,-11.58 19.06,-11.80 18.94,-12.01 18.89,-12.25 18.85,-12.48 18.88,-12.73 18.92,-12.97 19.03,-13.18 19.14,-13.40 19.31,-13.57 19.48,-13.74 19.70,-13.85 19.92,-13.96 20.16,-13.99 20.40,-14.02 20.64,-13.97 20.88,-13.92 21.09,-13.80 21.30,-13.68 21.46,-13.50 21.62,-13.32 21.72,-13.10 21.81,-12.87 21.83,-12.63 21.85,-12.39 21.79,-12.15 21.73,-11.92 21.60,-11.71 21.46,-11.51 21.27,-11.36 21.08,-11.21 21.08,-11.21 21.08,-11.21 19.30,-10.20 17.52,-9.19 13.35,-6.82 9.18,-4.45 6.86,-3.00 4.53,-1.56 2.86,-0.07 1.18,1.41 0.99,1.54 0.80,1.66 0.59,1.73 0.38,1.80 0.16,1.82 -0.05,1.84 -0.27,1.81 -0.49,1.77 -0.70,1.69 -0.90,1.60 -1.08,1.47 -1.26,1.34 -1.40,1.17 -1.55,1.00 -1.64,0.80 -1.74,0.60 -1.79,0.38 -1.84,0.16 -1.83,-0.05 -1.82,-0.27 -1.76,-0.49 -1.70,-0.70 -1.59,-0.90 -1.48,-1.09 -1.33,-1.25 -1.18,-1.41 -1.18,-1.41 L -1.18,-1.41 Z"></path></g><g transform="translate(953 697.78125) rotate(0 -9.5 27.5)" stroke="none"><path fill="#000" d="M -0.84,1.49 Q -0.84,1.49 -5.40,-1.13 -9.96,-3.76 -12.48,-4.32 -15.00,-4.89 -15.15,-5.00 -15.30,-5.10 -15.42,-5.25 -15.54,-5.39 -15.62,-5.55 -15.70,-5.72 -15.74,-5.90 -15.78,-6.08 -15.77,-6.26 -15.77,-6.45 -15.72,-6.63 -15.67,-6.80 -15.58,-6.96 -15.49,-7.12 -15.36,-7.26 -15.24,-7.39 -15.08,-7.49 -14.93,-7.59 -14.75,-7.65 -14.58,-7.71 -14.39,-7.73 -14.21,-7.75 -14.03,-7.72 -13.85,-7.69 -13.68,-7.62 -13.50,-7.55 -14.48,3.33 -15.46,14.23 -15.78,19.05 -16.10,23.87 -15.95,27.30 -15.81,30.73 -13.48,40.14 -11.14,49.55 -10.41,54.58 -9.68,59.61 -9.69,59.87 -9.70,60.13 -9.79,60.37 -9.89,60.61 -10.05,60.81 -10.21,61.01 -10.43,61.15 -10.65,61.28 -10.90,61.34 -11.16,61.40 -11.41,61.38 -11.67,61.35 -11.91,61.25 -12.14,61.14 -12.33,60.97 -12.52,60.79 -12.65,60.57 -12.77,60.34 -12.82,60.09 -12.86,59.83 -12.82,59.58 -12.79,59.32 -12.67,59.09 -12.55,58.86 -12.37,58.68 -12.18,58.50 -11.95,58.39 -11.72,58.28 -11.46,58.25 -11.20,58.21 -10.95,58.27 -10.70,58.32 -10.47,58.45 -10.25,58.58 -10.08,58.77 -9.91,58.96 -9.81,59.20 -9.71,59.44 -9.69,59.70 -9.68,59.96 -9.74,60.21 -9.81,60.46 -9.95,60.67 -10.09,60.89 -10.29,61.05 -10.50,61.21 -10.74,61.29 -10.98,61.38 -11.24,61.38 -11.50,61.39 -11.75,61.31 -11.99,61.23 -12.20,61.08 -12.41,60.92 -12.56,60.71 -12.71,60.50 -12.78,60.25 -12.85,60.00 -12.85,60.00 -12.85,60.01 -13.35,55.11 -13.85,50.22 -16.26,40.55 -18.66,30.88 -18.85,27.29 -19.03,23.70 -18.76,18.76 -18.50,13.82 -16.75,4.46 -15.00,-4.89 -15.15,-5.00 -15.30,-5.10 -15.42,-5.25 -15.54,-5.39 -15.62,-5.55 -15.70,-5.72 -15.74,-5.90 -15.78,-6.08 -15.77,-6.26 -15.77,-6.45 -15.72,-6.63 -15.67,-6.80 -15.58,-6.96 -15.49,-7.12 -15.36,-7.26 -15.24,-7.39 -15.08,-7.49 -14.93,-7.59 -14.75,-7.65 -14.58,-7.71 -14.39,-7.73 -14.21,-7.75 -14.03,-7.72 -13.85,-7.69 -13.68,-7.62 -13.51,-7.55 -10.97,-7.07 -8.43,-6.58 -3.79,-4.04 0.84,-1.49 1.01,-1.37 1.17,-1.25 1.31,-1.09 1.44,-0.93 1.53,-0.74 1.62,-0.56 1.66,-0.36 1.71,-0.15 1.70,0.04 1.70,0.25 1.64,0.45 1.59,0.65 1.48,0.83 1.38,1.01 1.24,1.16 1.10,1.32 0.92,1.43 0.75,1.54 0.55,1.61 0.36,1.68 0.15,1.70 -0.05,1.72 -0.25,1.68 -0.46,1.65 -0.65,1.57 -0.84,1.49 -0.84,1.49 L -0.84,1.49 Z"></path></g><g transform="translate(929 733.78125) rotate(0 21 -8)" stroke="none"><path fill="#000" d="M -0.70,-1.70 Q -0.70,-1.70 2.76,-3.07 6.24,-4.44 10.30,-6.15 14.37,-7.86 19.03,-9.45 23.70,-11.05 27.65,-12.56 31.60,-14.07 35.64,-15.53 39.68,-17.00 39.95,-17.04 40.22,-17.09 40.49,-17.04 40.76,-17.00 41.00,-16.87 41.24,-16.74 41.42,-16.54 41.61,-16.34 41.72,-16.09 41.84,-15.85 41.87,-15.58 41.89,-15.30 41.84,-15.04 41.78,-14.77 41.63,-14.54 41.49,-14.31 41.29,-14.13 41.08,-13.96 40.82,-13.86 40.57,-13.76 40.30,-13.74 40.03,-13.73 39.76,-13.80 39.50,-13.88 39.28,-14.03 39.05,-14.18 38.89,-14.40 38.72,-14.62 38.64,-14.88 38.55,-15.13 38.55,-15.41 38.55,-15.68 38.64,-15.94 38.73,-16.20 38.89,-16.41 39.06,-16.63 39.29,-16.78 39.51,-16.93 39.77,-17.00 40.04,-17.08 40.31,-17.06 40.58,-17.04 40.83,-16.94 41.09,-16.84 41.29,-16.66 41.50,-16.49 41.64,-16.25 41.78,-16.02 41.84,-15.75 41.90,-15.49 41.87,-15.22 41.83,-14.94 41.72,-14.70 41.60,-14.45 41.42,-14.25 41.23,-14.06 40.99,-13.93 40.75,-13.80 40.75,-13.80 40.75,-13.80 36.70,-12.57 32.66,-11.35 28.68,-9.76 24.70,-8.18 20.17,-6.55 15.64,-4.93 11.59,-3.11 7.55,-1.30 4.13,0.19 0.70,1.70 0.49,1.76 0.28,1.82 0.05,1.82 -0.16,1.83 -0.38,1.78 -0.59,1.74 -0.79,1.64 -0.99,1.54 -1.16,1.40 -1.33,1.26 -1.47,1.08 -1.60,0.90 -1.68,0.70 -1.77,0.49 -1.80,0.27 -1.84,0.05 -1.82,-0.16 -1.80,-0.38 -1.73,-0.59 -1.65,-0.80 -1.53,-0.99 -1.41,-1.17 -1.25,-1.32 -1.09,-1.48 -0.90,-1.59 -0.70,-1.70 -0.70,-1.70 L -0.70,-1.70 Z"></path></g><g transform="translate(1061 752.78125) rotate(0 0.00004999999998744897 0.00005000000000165983)" stroke="none"><path fill="#000" d="M 1.57,-1.57 Q 1.57,-1.57 1.77,-1.27 1.98,-0.98 2.09,-0.64 2.20,-0.29 2.19,0.05 2.18,0.41 2.05,0.75 1.93,1.09 1.70,1.37 1.48,1.65 1.18,1.84 0.87,2.04 0.52,2.12 0.18,2.21 -0.17,2.18 -0.53,2.15 -0.86,2.01 -1.19,1.87 -1.46,1.63 -1.73,1.39 -1.90,1.07 -2.08,0.76 -2.15,0.41 -2.21,0.05 -2.17,-0.29 -2.12,-0.65 -1.96,-0.97 -1.80,-1.29 -1.54,-1.54 -1.29,-1.80 -0.97,-1.96 -0.65,-2.12 -0.29,-2.17 0.06,-2.21 0.41,-2.15 0.76,-2.08 1.07,-1.90 1.39,-1.73 1.63,-1.46 1.87,-1.19 2.01,-0.86 2.15,-0.53 2.18,-0.17 2.21,0.18 2.12,0.52 2.03,0.87 1.84,1.18 1.65,1.48 1.37,1.70 1.09,1.93 0.75,2.05 0.41,2.18 0.05,2.19 -0.30,2.20 -0.64,2.09 -0.98,1.98 -1.27,1.77 -1.57,1.56 -1.57,1.57 -1.57,1.57 -1.73,1.35 -1.90,1.14 -2.01,0.90 -2.12,0.66 -2.16,0.39 -2.21,0.13 -2.20,-0.13 -2.18,-0.40 -2.10,-0.65 -2.02,-0.91 -1.88,-1.14 -1.74,-1.36 -1.55,-1.55 -1.36,-1.74 -1.14,-1.88 -0.91,-2.02 -0.65,-2.10 -0.40,-2.18 -0.13,-2.20 0.13,-2.21 0.39,-2.16 0.66,-2.12 0.90,-2.01 1.14,-1.90 1.35,-1.73 1.57,-1.57 1.57,-1.57 L 1.57,-1.57 Z"></path></g><g transform="translate(1186 631.78125) rotate(0 0.00004999999998744897 0.00005000000000165983)" stroke="none"><path fill="#000" d="M 1.57,-1.57 Q 1.57,-1.57 1.77,-1.27 1.98,-0.98 2.09,-0.64 2.20,-0.29 2.19,0.05 2.18,0.41 2.05,0.75 1.93,1.09 1.70,1.37 1.48,1.65 1.18,1.84 0.87,2.04 0.52,2.12 0.18,2.21 -0.17,2.18 -0.53,2.15 -0.86,2.01 -1.19,1.87 -1.46,1.63 -1.73,1.39 -1.90,1.07 -2.08,0.76 -2.15,0.41 -2.21,0.05 -2.17,-0.29 -2.12,-0.65 -1.96,-0.97 -1.80,-1.29 -1.54,-1.54 -1.29,-1.80 -0.97,-1.96 -0.65,-2.12 -0.29,-2.17 0.06,-2.21 0.41,-2.15 0.76,-2.08 1.07,-1.90 1.39,-1.73 1.63,-1.46 1.87,-1.19 2.01,-0.86 2.15,-0.53 2.18,-0.17 2.21,0.18 2.12,0.52 2.03,0.87 1.84,1.18 1.65,1.48 1.37,1.70 1.09,1.93 0.75,2.05 0.41,2.18 0.05,2.19 -0.30,2.20 -0.64,2.09 -0.98,1.98 -1.27,1.77 -1.57,1.56 -1.57,1.57 -1.57,1.57 -1.73,1.35 -1.90,1.14 -2.01,0.90 -2.12,0.66 -2.16,0.39 -2.21,0.13 -2.20,-0.13 -2.18,-0.40 -2.10,-0.65 -2.02,-0.91 -1.88,-1.14 -1.74,-1.36 -1.55,-1.55 -1.36,-1.74 -1.14,-1.88 -0.91,-2.02 -0.65,-2.10 -0.40,-2.18 -0.13,-2.20 0.13,-2.21 0.39,-2.16 0.66,-2.12 0.90,-2.01 1.14,-1.90 1.35,-1.73 1.57,-1.57 1.57,-1.57 L 1.57,-1.57 Z"></path></g><g transform="translate(942 608.78125) rotate(0 46 10)" stroke="none"><path fill="#000" d="M 2.05,0 Q 2.05,0 2.04,1.72 2.04,3.44 2.27,5.18 2.51,6.92 2.83,9.75 3.16,12.58 3.29,14.69 3.42,16.81 3.53,18.57 3.64,20.34 4.22,21.82 4.81,23.30 4.85,23.55 4.90,23.80 4.88,24.05 4.87,24.31 4.79,24.55 4.72,24.79 4.58,25.01 4.45,25.23 4.27,25.41 4.09,25.59 3.88,25.72 3.66,25.85 3.42,25.92 3.17,26.00 2.92,26.01 2.67,26.03 2.42,25.98 2.17,25.94 1.93,25.83 1.70,25.73 1.50,25.57 1.30,25.41 1.15,25.21 0.99,25.01 0.89,24.78 0.78,24.55 1.25,21.55 1.72,18.55 1.80,17.19 1.87,15.83 2.20,14.24 2.53,12.64 4.17,10.40 5.82,8.16 14.11,8.42 22.40,8.68 26.41,9.21 30.42,9.74 32.97,11.24 35.52,12.75 37.83,16.44 40.14,20.13 41.29,21.50 42.44,22.86 43.53,23.33 44.63,23.80 45.34,22.82 46.05,21.83 47.16,20.17 48.26,18.52 48.25,17.17 48.24,15.82 47.64,13.93 47.04,12.03 46.98,11.72 46.92,11.40 46.94,11.08 46.96,10.76 47.05,10.45 47.15,10.14 47.31,9.87 47.48,9.59 47.70,9.36 47.93,9.13 48.20,8.96 48.48,8.80 48.79,8.70 49.09,8.60 49.41,8.58 49.74,8.56 50.05,8.62 50.37,8.67 50.66,8.80 50.96,8.93 51.21,9.13 51.47,9.33 51.67,9.58 51.87,9.83 52.00,10.13 52.13,10.42 44.66,13.99 37.18,17.57 37.13,17.29 37.08,17.00 37.09,16.71 37.11,16.42 37.19,16.15 37.28,15.87 37.43,15.62 37.57,15.37 37.78,15.17 37.98,14.96 38.23,14.81 38.48,14.66 38.75,14.57 39.03,14.48 39.32,14.46 39.60,14.45 39.89,14.50 40.17,14.55 40.44,14.66 40.70,14.78 40.93,14.96 41.16,15.14 41.34,15.36 41.52,15.59 41.64,15.85 41.76,16.12 54.81,18.22 67.86,20.33 74.03,21.71 80.19,23.08 82.26,23.35 84.33,23.61 85.96,15.39 87.60,7.16 88.13,3.36 88.66,-0.44 88.87,-2.35 89.07,-4.26 88.93,-4.36 88.78,-4.45 88.51,-4.42 88.23,-4.38 87.96,-4.43 87.69,-4.48 87.45,-4.62 87.21,-4.75 87.03,-4.96 86.84,-5.16 86.73,-5.41 86.62,-5.67 86.60,-5.94 86.58,-6.21 86.64,-6.48 86.71,-6.75 86.86,-6.98 87.00,-7.22 87.22,-7.39 87.43,-7.56 87.69,-7.66 87.95,-7.75 88.22,-7.76 88.50,-7.77 88.76,-7.69 89.03,-7.61 89.25,-7.45 89.48,-7.29 89.64,-7.07 89.80,-6.84 89.88,-6.58 89.96,-6.32 89.96,-6.04 89.95,-5.77 89.86,-5.51 89.76,-5.25 89.59,-5.03 89.42,-4.82 89.19,-4.67 88.95,-4.52 88.69,-4.45 88.42,-4.38 88.14,-4.41 87.87,-4.43 87.62,-4.54 87.36,-4.64 87.16,-4.83 86.95,-5.01 86.81,-5.25 86.68,-5.49 86.62,-5.76 86.57,-6.03 86.61,-6.30 86.64,-6.58 86.77,-6.82 86.89,-7.07 87.08,-7.27 87.28,-7.46 87.52,-7.59 87.77,-7.71 87.77,-7.71 87.77,-7.71 90.04,-5.85 92.30,-3.99 92.10,-2.01 91.89,-0.04 91.45,3.92 91.01,7.90 89.01,16.63 87.00,25.37 83.21,26.30 79.42,27.24 73.15,26.14 66.88,25.03 52.03,21.30 37.18,17.57 37.13,17.29 37.08,17.00 37.09,16.71 37.11,16.42 37.19,16.15 37.28,15.87 37.43,15.62 37.57,15.37 37.78,15.17 37.98,14.96 38.23,14.81 38.47,14.66 38.75,14.57 39.03,14.48 39.32,14.46 39.60,14.45 39.89,14.50 40.17,14.55 40.44,14.66 40.70,14.78 40.93,14.96 41.16,15.14 41.34,15.36 41.52,15.59 41.64,15.85 41.76,16.12 44.40,14.08 47.04,12.04 46.98,11.72 46.92,11.40 46.94,11.08 46.96,10.76 47.05,10.45 47.15,10.14 47.31,9.87 47.48,9.59 47.70,9.36 47.93,9.13 48.20,8.96 48.48,8.80 48.79,8.70 49.09,8.60 49.41,8.58 49.74,8.56 50.05,8.62 50.37,8.67 50.66,8.80 50.96,8.93 51.21,9.13 51.47,9.33 51.67,9.58 51.87,9.83 52.00,10.13 52.13,10.42 52.58,11.91 53.03,13.41 53.23,15.47 53.44,17.54 53.20,18.68 52.97,19.81 51.92,21.29 50.87,22.76 50.03,23.84 49.18,24.93 47.77,26.07 46.36,27.22 44.05,26.84 41.75,26.47 40.90,25.63 40.06,24.80 38.84,23.24 37.63,21.67 35.73,18.47 33.83,15.26 31.88,14.08 29.94,12.90 26.08,12.51 22.22,12.13 14.70,11.59 7.18,11.05 6.81,12.34 6.43,13.63 6.06,14.93 5.69,16.24 5.47,17.63 5.25,19.03 5.03,21.16 4.81,23.30 4.85,23.55 4.90,23.80 4.88,24.05 4.87,24.31 4.79,24.55 4.72,24.79 4.58,25.01 4.45,25.23 4.27,25.41 4.09,25.59 3.88,25.72 3.66,25.85 3.42,25.92 3.17,26.00 2.92,26.01 2.67,26.03 2.42,25.98 2.17,25.94 1.93,25.83 1.70,25.73 1.50,25.57 1.30,25.41 1.15,25.21 0.99,25.01 0.89,24.78 0.78,24.55 0.72,23.80 0.67,23.05 0.40,21.79 0.13,20.52 0.09,18.81 0.05,17.10 -0.15,15.09 -0.37,13.09 -0.86,10.30 -1.36,7.51 -1.70,5.48 -2.04,3.45 -2.04,1.72 -2.05,0 -2.02,-0.24 -1.99,-0.49 -1.90,-0.72 -1.81,-0.95 -1.67,-1.15 -1.53,-1.36 -1.35,-1.52 -1.16,-1.69 -0.94,-1.80 -0.72,-1.92 -0.48,-1.98 -0.24,-2.03 0.00,-2.03 0.24,-2.03 0.48,-1.98 0.72,-1.92 0.94,-1.80 1.16,-1.69 1.35,-1.52 1.53,-1.36 1.67,-1.15 1.81,-0.95 1.90,-0.72 1.99,-0.49 2.02,-0.24 2.05,0.00 2.05,0.00 L 2.05,0 Z"></path></g></svg>