<svg version="1.1" xmlns="http://www.w3.org/2000/svg" viewBox="0 0 10020 645.78125" width="10020" height="645.78125">
  <!-- svg-source:excalidraw -->
  
  <defs>
    <style>
      @font-face {
        font-family: "Virgil";
        src: url("https://excalidraw.com/Virgil.woff2");
      }
      @font-face {
        font-family: "Cascadia";
        src: url("https://excalidraw.com/Cascadia.woff2");
      }
    </style>
  </defs>
  <rect x="0" y="0" width="10020" height="645.78125" fill="#fff0"></rect><g stroke-linecap="round" transform="translate(10 10) rotate(0 5000 0.5)"><path d="M-0.52 -0.26 C3022.65 -30.2, 6044.59 -29.2, 9999.32 0.22 M0.38 -0.31 C3948.03 -0.44, 7895.41 0.2, 9999.95 0.08 M10000.08 -0.06 C10000.09 0.27, 10000.05 0.48, 10000.09 0.92 M9999.97 0.01 C9999.95 0.33, 9999.98 0.72, 10000 0.99 M10000.22 1.51 C7095.77 35.76, 4193.15 34.95, -0.25 0.75 M10000.01 1.13 C7827.97 2.74, 5656.23 3.35, -0.33 0.84 M-0.04 1.01 C0 0.63, -0.06 0.15, 0.05 -0.03 M-0.04 0.95 C-0.04 0.73, -0.03 0.59, -0.05 -0.02" stroke="transparent" stroke-width="1" fill="none"></path></g><g transform="translate(558.25 587.78125) rotate(0 1 14.5)" stroke="none"><path fill="#000" d="M 2.01,0 Q 2.01,0 1.91,2.87 1.82,5.75 1.75,8.40 1.68,11.06 1.92,13.84 2.15,16.62 2.24,19.02 2.32,21.42 2.72,22.87 3.11,24.31 3.41,26.16 3.72,28.00 3.70,28.30 3.69,28.59 3.58,28.87 3.47,29.14 3.28,29.37 3.09,29.59 2.84,29.75 2.59,29.90 2.30,29.97 2.02,30.03 1.72,30.00 1.43,29.97 1.16,29.85 0.89,29.73 0.68,29.53 0.46,29.33 0.32,29.07 0.18,28.81 0.13,28.52 0.08,28.22 0.13,27.93 0.17,27.64 0.31,27.38 0.45,27.12 0.66,26.91 0.87,26.71 1.14,26.58 1.40,26.46 1.70,26.42 1.99,26.39 2.28,26.45 2.57,26.51 2.82,26.66 3.08,26.81 3.27,27.04 3.46,27.26 3.57,27.53 3.68,27.81 3.70,28.10 3.72,28.40 3.64,28.68 3.56,28.97 3.40,29.21 3.24,29.46 3.00,29.64 2.77,29.82 2.49,29.91 2.21,30.01 1.92,30.01 1.62,30.01 1.34,29.92 1.06,29.83 0.83,29.65 0.59,29.47 0.42,29.23 0.26,28.99 0.17,28.70 0.09,28.42 0.09,28.42 0.09,28.42 -0.01,26.71 -0.12,25.01 -0.40,23.29 -0.68,21.58 -0.84,19.26 -1.00,16.93 -1.34,14.00 -1.68,11.06 -1.75,8.40 -1.82,5.75 -1.91,2.87 -2.01,0 -1.98,-0.24 -1.95,-0.48 -1.86,-0.70 -1.78,-0.93 -1.64,-1.13 -1.50,-1.33 -1.32,-1.49 -1.14,-1.65 -0.92,-1.76 -0.71,-1.88 -0.47,-1.93 -0.24,-1.99 0.00,-1.99 0.24,-1.99 0.47,-1.93 0.71,-1.88 0.92,-1.76 1.14,-1.65 1.32,-1.49 1.50,-1.33 1.64,-1.13 1.78,-0.93 1.86,-0.70 1.95,-0.48 1.98,-0.24 2.01,0.00 2.01,0.00 L 2.01,0 Z"></path></g><g transform="translate(569.25 586.78125) rotate(0 1.5 10.5)" stroke="none"><path fill="#000" d="M 1.95,-0.48 Q 1.95,-0.48 2.43,1.83 2.92,4.15 3.11,6.41 3.31,8.66 3.65,10.66 3.99,12.66 4.15,14.77 4.32,16.88 4.50,18.52 4.68,20.17 4.65,20.45 4.63,20.73 4.51,20.98 4.39,21.24 4.20,21.44 4.01,21.65 3.76,21.78 3.52,21.91 3.24,21.96 2.96,22.01 2.69,21.97 2.41,21.92 2.16,21.79 1.91,21.66 1.72,21.46 1.52,21.26 1.40,21.00 1.28,20.75 1.25,20.47 1.22,20.19 1.28,19.92 1.33,19.64 1.48,19.40 1.62,19.16 1.83,18.98 2.05,18.79 2.31,18.69 2.57,18.58 2.85,18.57 3.13,18.55 3.40,18.62 3.67,18.69 3.90,18.85 4.13,19.01 4.31,19.23 4.48,19.45 4.57,19.72 4.66,19.98 4.66,20.26 4.66,20.54 4.58,20.81 4.49,21.08 4.32,21.30 4.15,21.53 3.92,21.68 3.69,21.84 3.42,21.92 3.15,22.00 2.87,21.98 2.59,21.97 2.33,21.87 2.07,21.77 1.85,21.59 1.64,21.41 1.49,21.17 1.34,20.93 1.28,20.65 1.22,20.38 1.22,20.38 1.22,20.38 1.20,18.76 1.18,17.13 1.01,15.20 0.84,13.26 0.40,11.15 -0.03,9.04 -0.32,7.04 -0.62,5.04 -1.28,2.76 -1.95,0.48 -1.98,0.24 -2.01,0.00 -1.98,-0.23 -1.95,-0.47 -1.86,-0.70 -1.78,-0.92 -1.64,-1.12 -1.50,-1.32 -1.32,-1.48 -1.14,-1.65 -0.93,-1.76 -0.71,-1.87 -0.48,-1.93 -0.24,-1.99 -0.00,-1.99 0.23,-1.99 0.47,-1.93 0.70,-1.88 0.92,-1.77 1.13,-1.65 1.31,-1.49 1.50,-1.33 1.63,-1.13 1.77,-0.94 1.86,-0.71 1.95,-0.48 1.95,-0.48 L 1.95,-0.48 Z"></path></g><g transform="translate(557.25 604.78125) rotate(0 10.5 -2)" stroke="none"><path fill="#000" d="M -0.27,-1.94 Q -0.27,-1.94 1.74,-2.17 3.76,-2.39 6.34,-2.73 8.91,-3.07 11.44,-3.47 13.96,-3.88 16.65,-4.66 19.34,-5.44 19.63,-5.47 19.92,-5.49 20.21,-5.42 20.49,-5.35 20.74,-5.19 20.98,-5.04 21.16,-4.81 21.35,-4.58 21.45,-4.31 21.55,-4.03 21.56,-3.74 21.57,-3.45 21.48,-3.17 21.39,-2.89 21.22,-2.65 21.05,-2.42 20.82,-2.24 20.58,-2.07 20.30,-1.99 20.02,-1.90 19.73,-1.91 19.44,-1.92 19.16,-2.02 18.89,-2.12 18.66,-2.30 18.43,-2.48 18.28,-2.73 18.12,-2.98 18.05,-3.26 17.98,-3.54 18.00,-3.83 18.02,-4.13 18.14,-4.39 18.25,-4.66 18.45,-4.88 18.64,-5.10 18.90,-5.24 19.15,-5.39 19.44,-5.44 19.73,-5.50 20.02,-5.46 20.31,-5.42 20.57,-5.29 20.83,-5.16 21.04,-4.95 21.24,-4.75 21.37,-4.48 21.50,-4.22 21.54,-3.93 21.58,-3.64 21.53,-3.36 21.47,-3.07 21.33,-2.81 21.18,-2.56 20.97,-2.37 20.75,-2.17 20.48,-2.05 20.21,-1.94 20.21,-1.94 20.21,-1.94 17.37,-1.34 14.53,-0.75 11.99,-0.23 9.45,0.28 6.86,0.76 4.28,1.24 2.28,1.59 0.27,1.94 0.04,1.95 -0.19,1.95 -0.42,1.90 -0.65,1.85 -0.86,1.74 -1.08,1.64 -1.26,1.48 -1.44,1.33 -1.58,1.14 -1.72,0.94 -1.80,0.72 -1.89,0.51 -1.93,0.27 -1.96,0.04 -1.94,-0.19 -1.91,-0.43 -1.83,-0.65 -1.75,-0.87 -1.62,-1.07 -1.49,-1.27 -1.32,-1.43 -1.14,-1.59 -0.94,-1.70 -0.73,-1.82 -0.50,-1.88 -0.27,-1.94 -0.27,-1.94 L -0.27,-1.94 Z"></path></g><g transform="translate(586.25 604.78125) rotate(0 30.5 5.5)" stroke="none"><path fill="#000" d="M -1.36,-1.56 Q -1.36,-1.56 0.99,-3.49 3.36,-5.43 4.20,-6.50 5.05,-7.58 5.25,-6.53 5.46,-5.48 4.43,-4.63 3.40,-3.79 2.41,-2.27 1.43,-0.75 0.99,0.89 0.56,2.55 0.67,3.93 0.79,5.31 1.50,6.45 2.22,7.59 3.65,8.28 5.08,8.97 6.92,9.07 8.76,9.16 10.54,8.45 12.33,7.74 13.94,6.65 15.54,5.56 16.72,4.06 17.90,2.57 18.66,0.61 19.43,-1.34 19.75,-3.26 20.08,-5.19 20.16,-6.86 20.24,-8.54 20.76,-7.03 21.29,-5.52 21.12,-3.37 20.96,-1.21 21.14,1.03 21.32,3.29 21.91,5.29 22.50,7.28 23.54,8.53 24.58,9.78 25.67,9.99 26.76,10.21 27.32,9.26 27.88,8.32 28.85,6.64 29.83,4.97 30.85,2.29 31.88,-0.38 32.33,-3.14 32.77,-5.90 32.99,-8.80 33.20,-11.70 33.31,-14.09 33.41,-16.48 33.34,-17.22 33.26,-17.96 33.29,-18.16 33.32,-18.36 33.40,-18.55 33.48,-18.74 33.60,-18.90 33.72,-19.06 33.88,-19.19 34.03,-19.32 34.22,-19.41 34.40,-19.50 34.60,-19.54 34.80,-19.58 35.00,-19.58 35.20,-19.57 35.40,-19.51 35.59,-19.46 35.77,-19.36 35.95,-19.26 36.09,-19.12 36.24,-18.98 36.35,-18.81 36.46,-18.64 36.53,-18.45 36.59,-18.25 36.61,-18.05 36.63,-17.85 36.60,-16.18 36.57,-14.52 36.54,-11.49 36.51,-8.47 36.48,-5.17 36.46,-1.87 36.72,1.47 36.99,4.83 37.38,7.68 37.77,10.53 38.48,12.79 39.19,15.06 40.08,16.49 40.97,17.92 41.74,18.84 42.52,19.76 44.08,17.80 45.64,15.83 47.04,13.93 48.44,12.02 49.30,10.17 50.16,8.32 50.45,7.13 50.74,5.95 50.85,5.75 50.97,5.56 51.12,5.40 51.28,5.24 51.47,5.12 51.66,5.00 51.87,4.94 52.09,4.87 52.31,4.85 52.53,4.83 52.75,4.87 52.97,4.91 53.18,5.00 53.38,5.09 53.56,5.23 53.74,5.36 53.88,5.54 54.02,5.71 54.11,5.91 54.21,6.12 54.25,6.34 54.29,6.56 54.28,6.78 54.27,7.00 54.21,7.22 54.14,7.43 53.08,13.31 52.01,19.19 51.55,22.04 51.10,24.89 51.54,26.09 51.99,27.28 53.21,27.91 54.43,28.54 55.86,27.68 57.29,26.83 58.16,25.95 59.03,25.06 59.57,23.78 60.11,22.50 60.44,20.71 60.77,18.92 60.14,16.94 59.51,14.97 58.22,13.33 56.93,11.70 55.54,10.43 54.16,9.16 52.08,8.46 50.00,7.75 49.76,7.63 49.52,7.51 49.33,7.32 49.13,7.13 49.01,6.88 48.89,6.64 48.86,6.37 48.82,6.10 48.87,5.84 48.92,5.57 49.06,5.33 49.19,5.10 49.39,4.92 49.59,4.74 49.84,4.63 50.09,4.52 50.36,4.50 50.63,4.48 50.90,4.54 51.16,4.61 51.39,4.76 51.62,4.90 51.79,5.11 51.96,5.33 52.05,5.58 52.15,5.83 52.15,6.11 52.16,6.38 52.08,6.64 52.00,6.90 51.84,7.12 51.68,7.34 51.46,7.50 51.24,7.65 50.98,7.73 50.72,7.81 50.45,7.80 50.18,7.80 49.92,7.70 49.67,7.61 49.46,7.44 49.25,7.27 49.10,7.04 48.96,6.81 48.89,6.55 48.83,6.28 48.85,6.01 48.87,5.74 48.98,5.49 49.08,5.24 49.27,5.04 49.45,4.84 49.68,4.71 49.92,4.57 50.19,4.52 50.45,4.47 50.72,4.51 50.99,4.55 50.99,4.55 50.99,4.55 53.60,5.70 56.22,6.86 57.79,8.31 59.37,9.77 61.00,11.84 62.62,13.92 63.45,16.61 64.27,19.30 63.95,21.72 63.63,24.14 62.65,26.00 61.68,27.86 60.32,28.96 58.97,30.06 56.52,31.17 54.07,32.28 52.33,31.58 50.58,30.87 49.71,29.55 48.83,28.23 48.48,26.39 48.14,24.55 48.52,21.62 48.91,18.69 49.82,12.32 50.74,5.95 50.85,5.75 50.97,5.56 51.12,5.40 51.28,5.24 51.47,5.12 51.66,5.00 51.87,4.94 52.08,4.87 52.31,4.85 52.53,4.83 52.75,4.87 52.97,4.91 53.18,5.00 53.38,5.09 53.56,5.23 53.74,5.36 53.88,5.54 54.02,5.71 54.11,5.91 54.21,6.12 54.25,6.34 54.29,6.56 54.28,6.78 54.27,7.00 54.21,7.22 54.14,7.43 53.68,8.54 53.22,9.65 52.32,11.84 51.41,14.03 50.01,16.23 48.61,18.42 47.22,20.05 45.83,21.67 44.38,22.35 42.93,23.02 41.31,22.32 39.69,21.63 39.04,20.50 38.38,19.38 37.48,17.64 36.58,15.90 35.80,13.41 35.01,10.92 34.58,8.00 34.15,5.07 33.84,1.60 33.53,-1.87 33.50,-5.16 33.47,-8.46 33.42,-11.48 33.38,-14.49 33.32,-16.23 33.26,-17.96 33.29,-18.16 33.32,-18.36 33.40,-18.55 33.48,-18.74 33.60,-18.90 33.72,-19.06 33.88,-19.19 34.03,-19.32 34.22,-19.41 34.40,-19.50 34.60,-19.54 34.80,-19.58 35.00,-19.58 35.20,-19.57 35.40,-19.51 35.59,-19.46 35.77,-19.36 35.95,-19.26 36.09,-19.12 36.24,-18.98 36.35,-18.81 36.46,-18.64 36.53,-18.45 36.59,-18.25 36.61,-18.05 36.63,-17.85 36.49,-17.12 36.35,-16.38 36.30,-13.95 36.25,-11.51 36.10,-8.47 35.94,-5.43 35.53,-2.33 35.11,0.75 34.11,3.74 33.11,6.72 32.01,8.91 30.91,11.10 29.31,12.47 27.70,13.84 25.83,13.71 23.96,13.59 22.98,12.69 22.00,11.80 20.73,10.06 19.46,8.32 18.68,6.00 17.90,3.67 17.56,1.17 17.22,-1.32 17.19,-3.59 17.15,-5.86 17.34,-7.98 17.52,-10.09 18.72,-11.51 19.92,-12.92 21.46,-11.93 22.99,-10.95 23.14,-9.63 23.29,-8.31 23.07,-6.51 22.84,-4.71 22.45,-2.51 22.06,-0.31 21.12,2.01 20.19,4.34 18.73,6.17 17.27,8.00 15.38,9.33 13.48,10.65 11.09,11.56 8.70,12.47 6.12,12.33 3.54,12.18 1.33,10.95 -0.87,9.72 -1.95,7.70 -3.03,5.68 -3.09,3.68 -3.14,1.68 -2.62,-0.56 -2.09,-2.80 -0.82,-5.05 0.44,-7.30 2.01,-8.55 3.58,-9.80 5.18,-10.12 6.78,-10.43 7.81,-9.71 8.84,-8.98 8.45,-7.01 8.05,-5.03 6.94,-3.82 5.83,-2.61 3.60,-0.52 1.36,1.56 1.16,1.70 0.95,1.84 0.71,1.93 0.48,2.02 0.23,2.04 -0.01,2.07 -0.26,2.04 -0.50,2.01 -0.74,1.92 -0.97,1.83 -1.18,1.69 -1.38,1.54 -1.55,1.35 -1.71,1.16 -1.83,0.94 -1.94,0.72 -2.00,0.48 -2.06,0.23 -2.06,-0.01 -2.06,-0.26 -1.99,-0.50 -1.93,-0.74 -1.82,-0.97 -1.70,-1.19 -1.53,-1.37 -1.36,-1.56 -1.36,-1.56 L -1.36,-1.56 Z"></path></g></svg>